<svg width="130" height="130" viewBox="0 0 130 130" fill="none" xmlns="http://www.w3.org/2000/svg">
<rect x="5.93396" y="5.95973" width="118.679" height="119.194" rx="31" fill="white"/>
<path d="M22.0124 71.8121C22.0124 71.8121 8.85487 28.7392 57.9071 20.4468C86.6424 15.5891 106.619 41.0366 106.619 41.0366C106.619 41.0366 140.314 70.3232 87.8779 101.941C35.4415 133.559 22.0124 71.8121 22.0124 71.8121Z" fill="url(#paint0_linear)"/>
<mask id="mask0" mask-type="alpha" maskUnits="userSpaceOnUse" x="29" y="15" width="83" height="83">
<path d="M39.8033 62.7621L44.5518 64.4236L38.754 66.9651L40.9501 68.1758L30.2549 72.3208L37.7827 78.8616L31.2528 80.9995L39.8494 85.2606L36.0403 86.5077L44.3197 95.3753L47.5651 92.383L48.6924 95.8734L50.6616 92.6557L52.3331 95.9679L59.1997 91.1467L57.982 96.6913L61.5447 89.0924L63.2552 96.2513L65.8394 81.8971L67.0252 91.1575L68.7286 79.6646L72.4473 87.4525L71.7861 76.0906L75.3169 83.2967L71.164 68.5754L78.9186 79.5445L78.2575 68.1826L80.661 71.8984L76.2102 63.7069L83.9259 70.8294L84.5019 55.8462L89.1211 62.696L91.5759 53.53L93.079 58.1839L92.7546 44.1387L97.4323 56.7586L94.6849 37.0743L101.28 59.3581L111.295 41.9279L82.46 15.9904L70.9228 26.8434L80.7371 25.5599L64.6004 31.4865L75.9177 34.8567L64.2636 34.1697L70.3273 39.9033L59.1978 37.1148L63.6681 47.2296L56.4771 38.0056L58.246 50.9346L52.0139 46.5426L54.7932 51.4218L49.7079 52.4435L55.3569 53.167L45.2058 57.1338L42.4851 58.0246L54.3076 57.37L39.8033 62.7621Z" fill="#C4C4C4"/>
<path d="M47.9266 56.243L45.2058 57.1338M45.2058 57.1338L42.4851 58.0246L54.3076 57.37L39.8033 62.7621L44.5518 64.4236L38.754 66.9651L40.9501 68.1758L30.2549 72.3208L37.7827 78.8616L31.2528 80.9995L39.8494 85.2606L36.0403 86.5077L44.3197 95.3753L47.5651 92.383L48.6924 95.8734L50.6616 92.6557L52.3331 95.9679L59.1997 91.1467L57.982 96.6913L61.5447 89.0924L63.2552 96.2513L65.8394 81.8971L67.0252 91.1575L68.7286 79.6646L72.4473 87.4525L71.7861 76.0906L75.3169 83.2967L71.164 68.5754L78.9186 79.5445L78.2575 68.1826L80.661 71.8984L76.2102 63.7069L83.9259 70.8294L84.5019 55.8462L89.1211 62.696L91.5759 53.53L93.079 58.1839L92.7546 44.1387L97.4323 56.7586L94.6849 37.0743L101.28 59.3581L111.295 41.9279L82.4599 15.9904L70.9228 26.8434L80.7371 25.5599L64.6004 31.4865L75.9177 34.8567L64.2636 34.1697L70.3273 39.9033L59.1978 37.1148L63.6681 47.2296L56.4771 38.0056L58.246 50.9346L52.0139 46.5426L54.7932 51.4218L49.7079 52.4435L55.3569 53.167L45.2058 57.1338Z" stroke="black"/>
</mask>
<g mask="url(#mask0)">
<path d="M40.4829 90.8587C33.2894 83.9858 32.6857 72.2357 39.1344 64.6142L68.5464 29.8533C74.9951 22.2318 86.0543 21.625 93.2478 28.4979C100.441 35.3708 101.045 47.1209 94.5962 54.7424L65.1842 89.5033C58.7355 97.1248 47.6763 97.7316 40.4829 90.8587Z" fill="url(#paint1_radial)"/>
</g>
<path d="M27.1583 106.914C26.3605 106.152 26.2928 104.85 27.007 104.006L46.6706 80.7626C47.7419 79.4962 49.5856 79.4014 50.7822 80.5448C51.9789 81.6882 52.0855 83.6466 51.0142 84.913L31.3506 108.156C30.6364 109 29.4107 109.067 28.6129 108.304L27.1583 106.914Z" fill="#2C365E"/>
<path d="M39.4885 90.8904C38.6907 90.1282 38.623 88.8259 39.3373 87.9817L46.0974 79.9916C47.5144 78.3168 49.9461 78.185 51.5288 79.6972C53.1115 81.2094 53.2458 83.7929 51.8288 85.4677L45.0688 93.4577C44.3545 94.3019 43.1287 94.3684 42.331 93.6062L39.4885 90.8904Z" fill="#2C365E" fill-opacity="0.35"/>
<defs>
<linearGradient id="paint0_linear" x1="84.6952" y1="102.883" x2="38.9084" y2="25.5805" gradientUnits="userSpaceOnUse">
<stop stop-color="white"/>
<stop offset="1" stop-color="#B4C0FF" stop-opacity="0"/>
</linearGradient>
<radialGradient id="paint1_radial" cx="0" cy="0" r="1" gradientUnits="userSpaceOnUse" gradientTransform="translate(49.919 83.4521) rotate(-48.5889) scale(92.7977 208.501)">
<stop offset="0.116937" stop-color="#66ABF4"/>
<stop offset="0.583333" stop-color="#FF87B9"/>
<stop offset="0.90625" stop-color="#FFF38A"/>
</radialGradient>
</defs>
</svg>
